<svg width="447.36505126953125px" height="70px" xmlns="http://www.w3.org/2000/svg" viewBox="26.317474365234375 14.600000000000001 447.36505126953125 120.8" style="background: rgb(0, 0, 0);" preserveAspectRatio="xMidYMid"><defs><filter id="editing-hole" x="-100%" y="-100%" width="300%" height="300%"><feFlood flood-color="#000000" result="black"></feFlood><feMorphology operator="dilate" radius="2" in="SourceGraphic" result="erode"></feMorphology><feGaussianBlur in="erode" stdDeviation="4" result="blur"></feGaussianBlur><feOffset in="blur" dx="2" dy="2" result="offset"></feOffset><feComposite operator="atop" in="offset" in2="black" result="merge"></feComposite><feComposite operator="in" in="merge" in2="SourceGraphic" result="inner-shadow"></feComposite></filter></defs><g filter="url(#editing-hole)"><g transform="translate(96.58238792419434, 104.76000022888184)"><path fill-rule="evenodd" clip-rule="evenodd" d="M27.8333 18C27.8333 25.0877 22.0877 30.8333 15 30.8333C7.91234 30.8333 2.16666 25.0877 2.16666 18C2.16666 10.9123 7.91234 5.16666 15 5.16666C22.0877 5.16666 27.8333 10.9123 27.8333 18ZM30 18C30 26.2843 23.2843 33 15 33C6.71573 33 0 26.2843 0 18C0 9.71573 6.71573 3 15 3C23.2843 3 30 9.71573 30 18ZM23.2759 11.2759C23.2759 12.1329 22.5812 12.8276 21.7242 12.8276C20.8672 12.8276 20.1725 12.1329 20.1725 11.2759C20.1725 10.4189 20.8672 9.72418 21.7242 9.72418C22.5812 9.72418 23.2759 10.4189 23.2759 11.2759ZM10.4879 19.209C11.1556 21.7009 13.717 23.1797 16.2089 22.512C18.7008 21.8443 20.1796 19.2829 19.5119 16.791C18.8442 14.2991 16.2828 12.8203 13.7909 13.488C11.299 14.1557 9.82015 16.7171 10.4879 19.209ZM8.39503 19.7698C9.37244 23.4175 13.1219 25.5823 16.7696 24.6049C20.4174 23.6274 22.5821 19.878 21.6047 16.2302C20.6273 12.5825 16.8779 10.4177 13.2301 11.3952C9.58236 12.3726 7.41762 16.122 8.39503 19.7698Z" fill="url(#paint0_linear_120_1360)"/><path d="M29.18 1.28L29.18 1.28L29.18 1.28Q20.99 1.28 20.22-10.37L20.22-10.37L9.22-10.37L9.22-10.37Q7.94-7.42 7.04-4.86L7.04-4.86L5.38 0L-3.58 0L16.58-42.24L30.34-42.24L33.02-11.14L33.02-11.14Q33.66-4.42 36.22-2.43L36.22-2.43L36.22-2.43Q34.37 1.28 29.18 1.28ZM14.72-23.17L11.20-15.04L20.03-15.04L19.26-31.49L19.26-33.22L14.72-23.17ZM39.10-3.07L39.10-3.07L47.04-44.80L60.03-46.08L58.05-36.29L58.05-36.29Q57.34-33.28 56.45-31.17L56.45-31.17L56.45-31.17Q57.86-32.96 60.93-33.66L60.93-33.66L60.93-33.66Q61.82-33.92 62.91-33.92L62.91-33.92L62.91-33.92Q68.86-33.92 72.13-30.30L72.13-30.30L72.13-30.30Q75.39-26.69 75.39-19.71L75.39-19.71L75.39-19.71Q75.39-10.62 70.21-4.93L70.21-4.93L70.21-4.93Q64.64 1.28 54.53 1.28L54.53 1.28L54.53 1.28Q47.55 1.28 42.30-1.02L42.30-1.02L42.30-1.02Q40.45-1.86 39.10-3.07ZM55.36-22.40L51.97-3.65L51.97-3.65Q53.31-2.50 54.98-2.50L54.98-2.50L54.98-2.50Q56.64-2.50 57.60-3.14L57.60-3.14L57.60-3.14Q58.56-3.78 59.26-5.06L59.26-5.06L59.26-5.06Q61.18-8.51 62.72-19.07L62.72-19.07L62.72-19.07Q63.17-22.08 63.17-25.09L63.17-25.09L63.17-25.09Q63.17-28.10 62.50-29.06L62.50-29.06L62.50-29.06Q61.82-30.02 60.54-30.02L60.54-30.02L60.54-30.02Q56.64-30.02 55.36-22.40L55.36-22.40ZM111.42-7.10L111.42-7.10L111.42-7.10Q111.42-4.29 114.30-3.46L114.30-3.46L114.30-3.46Q113.60-1.09 110.85 0.19L110.85 0.19L110.85 0.19Q108.54 1.28 106.02 1.28L106.02 1.28L106.02 1.28Q103.49 1.28 102.18 0.61L102.18 0.61L102.18 0.61Q100.86-0.06 100.16-1.15L100.16-1.15L100.16-1.15Q99.01-2.82 99.01-5.95L99.01-5.95L99.01-5.95Q99.01-7.81 100.03-12.93L100.03-12.93L100.93-17.79L100.93-17.79Q102.02-23.36 102.02-25.41L102.02-25.41L102.02-25.41Q102.02-28.99 100.03-28.99L100.03-28.99L100.03-28.99Q97.54-28.99 95.94-25.34L95.94-25.34L95.94-25.34Q95.30-23.94 94.85-21.82L94.85-21.82L90.50 0L77.63 1.28L86.66-44.80L99.52-46.08L99.01-43.52L99.01-43.52Q97.22-33.66 95.68-30.34L95.68-30.34L95.68-30.34Q99.26-33.92 105.86-33.92L105.86-33.92L105.86-33.92Q112.83-33.92 114.11-29.31L114.11-29.31L114.11-29.31Q114.56-27.84 114.56-26.56L114.56-26.56L114.56-26.56Q114.56-25.28 114.46-24.29L114.46-24.29L114.46-24.29Q114.37-23.30 114.05-21.50L114.05-21.50L113.22-16.90L111.74-9.66L111.74-9.66Q111.42-8.19 111.42-7.10ZM134.85-3.52L134.85-3.52L134.85-3.52Q132.86 1.28 126.53 1.28L126.53 1.28L126.53 1.28Q123.26 1.28 121.22-0.96L121.22-0.96L121.22-0.96Q119.49-2.94 119.49-4.93L119.49-4.93L119.49-4.93Q119.49-10.11 121.86-20.22L121.86-20.22L124.22-32.64L137.22-33.92L133.31-13.70L133.31-13.70Q132.22-8.96 132.22-7.30L132.22-7.30L132.22-7.30Q132.22-3.65 134.85-3.52ZM125.38-41.54L125.38-41.54L125.38-41.54Q125.38-44.03 127.46-45.38L127.46-45.38L127.46-45.38Q129.54-46.72 132.54-46.72L132.54-46.72L132.54-46.72Q135.55-46.72 137.38-45.38L137.38-45.38L137.38-45.38Q139.20-44.03 139.20-41.54L139.20-41.54L139.20-41.54Q139.20-39.04 137.18-37.76L137.18-37.76L137.18-37.76Q135.17-36.48 132.16-36.48L132.16-36.48L132.16-36.48Q129.15-36.48 127.26-37.76L127.26-37.76L127.26-37.76Q125.38-39.04 125.38-41.54ZM144.83-26.75L144.83-26.75L144.83-26.75Q147.01-29.82 150.30-31.87L150.30-31.87L150.30-31.87Q153.60-33.92 157.63-33.92L157.63-33.92L157.63-33.92Q161.66-33.92 163.58-32.64L163.58-32.64L176.13-33.92L171.78-9.34L171.78-9.34Q169.54 3.20 164.80 8.13L164.80 8.13L164.80 8.13Q160.26 12.80 151.42 12.80L151.42 12.80L151.42 12.80Q144.70 12.80 140.86 10.69L140.86 10.69L140.86 10.69Q137.02 8.58 137.02 5.06L137.02 5.06L137.02 5.06Q137.02 2.43 139.01 0.93L139.01 0.93L139.01 0.93Q140.99-0.58 144.06-0.58L144.06-0.58L144.06-0.58Q146.75-0.58 148.80 0.64L148.80 0.64L148.80 0.64Q150.02 1.28 150.59 2.18L150.59 2.18L150.59 2.18Q149.12 3.46 149.12 5.57L149.12 5.57L149.12 5.57Q149.12 8.32 151.68 8.32L151.68 8.32L151.68 8.32Q155.97 8.32 158.40-1.79L158.40-1.79L158.40-1.79Q159.10-4.54 159.68-7.30L159.68-7.30L159.68-7.30Q156.80-3.78 150.27-3.78L150.27-3.78L150.27-3.78Q145.73-3.78 143.10-5.95L143.10-5.95L143.10-5.95Q140.48-8.13 140.48-13.25L140.48-13.25L140.48-13.25Q140.48-16.45 141.57-20.06L141.57-20.06L141.57-20.06Q142.66-23.68 144.83-26.75ZM153.15-13.06L153.15-13.06L153.15-13.06Q153.15-8.70 155.39-8.70L155.39-8.70L155.39-8.70Q156.93-8.70 158.40-10.37L158.40-10.37L158.40-10.37Q159.55-11.71 160.00-13.70L160.00-13.70L163.26-30.14L163.26-30.14Q162.94-30.21 162.62-30.34L162.62-30.34L162.62-30.34Q161.98-30.59 161.15-30.59L161.15-30.59L161.15-30.59Q157.25-30.59 154.94-24.19L154.94-24.19L154.94-24.19Q153.15-19.20 153.15-13.06ZM198.66-17.98L198.66-17.98L198.66-17.98Q200.96-22.08 200.96-26.24L200.96-26.24L200.96-26.24Q200.96-28.99 198.98-28.99L198.98-28.99L198.98-28.99Q197.44-28.99 195.84-26.37L195.84-26.37L195.84-26.37Q194.18-23.74 193.66-20.35L193.66-20.35L190.34 0L177.09 1.28L183.62-32.64L194.18-33.92L193.02-27.46L193.02-27.46Q196.16-33.92 203.20-33.92L203.20-33.92L203.20-33.92Q206.91-33.92 208.93-32L208.93-32L208.93-32Q210.94-30.08 210.94-26.14L210.94-26.14L210.94-26.14Q210.94-22.21 208.35-19.71L208.35-19.71L208.35-19.71Q205.76-17.22 201.34-17.22L201.34-17.22L201.34-17.22Q199.42-17.22 198.66-17.98ZM214.75-1.92L214.75-1.92L214.75-1.92Q213.25-3.58 212.58-6.21L212.58-6.21L212.58-6.21Q211.90-8.83 211.90-13.12L211.90-13.12L211.90-13.12Q211.90-17.41 213.38-21.31L213.38-21.31L213.38-21.31Q214.85-25.22 217.54-28.03L217.54-28.03L217.54-28.03Q223.04-33.92 232.13-33.92L232.13-33.92L232.13-33.92Q235.39-33.92 237.76-32.83L237.76-32.83L248.70-33.92L243.97-8.96L243.97-8.96Q243.78-8.19 243.78-6.78L243.78-6.78L243.78-6.78Q243.78-5.38 244.64-4.48L244.64-4.48L244.64-4.48Q245.50-3.58 246.78-3.46L246.78-3.46L246.78-3.46Q246.14-1.28 243.81 0L243.81 0L243.81 0Q241.47 1.28 238.85 1.28L238.85 1.28L238.85 1.28Q236.22 1.28 234.46 0.29L234.46 0.29L234.46 0.29Q232.70-0.70 232.19-2.37L232.19-2.37L232.19-2.37Q231.17-0.77 228.99 0.26L228.99 0.26L228.99 0.26Q226.82 1.28 223.90 1.28L223.90 1.28L223.90 1.28Q220.99 1.28 218.62 0.51L218.62 0.51L218.62 0.51Q216.26-0.26 214.75-1.92ZM228.26-27.90L228.26-27.90L228.26-27.90Q227.52-26.75 226.88-24.80L226.88-24.80L226.88-24.80Q226.24-22.85 225.18-17.63L225.18-17.63L225.18-17.63Q224.13-12.42 224.13-8.70L224.13-8.70L224.13-8.70Q224.13-4.99 224.70-3.90L224.70-3.90L224.70-3.90Q225.28-2.82 226.30-2.82L226.30-2.82L226.30-2.82Q228.35-2.82 229.86-4.77L229.86-4.77L229.86-4.77Q231.36-6.72 231.94-10.18L231.94-10.18L235.33-28.93L235.33-28.93Q233.98-30.08 232.42-30.08L232.42-30.08L232.42-30.08Q230.85-30.08 229.92-29.57L229.92-29.57L229.92-29.57Q228.99-29.06 228.26-27.90ZM298.24 1.28L298.24 1.28L298.24 1.28Q290.50 1.28 290.50-4.74L290.50-4.74L290.50-4.74Q290.50-7.36 291.62-12.45L291.62-12.45L291.62-12.45Q292.74-17.54 293.12-19.58L293.12-19.58L293.12-19.58Q294.02-24.26 294.02-25.73L294.02-25.73L294.02-25.73Q294.02-28.99 291.58-28.99L291.58-28.99L291.58-28.99Q289.98-28.99 288.45-26.78L288.45-26.78L288.45-26.78Q286.91-24.58 286.21-20.16L286.21-20.16L282.24 0L269.76 1.28L273.22-16.13L273.22-16.13Q273.79-19.01 274.30-22.27L274.30-22.27L274.30-22.27Q274.82-25.54 274.82-26.05L274.82-26.05L274.82-26.05Q274.82-28.99 272.64-28.99L272.64-28.99L272.64-28.99Q271.17-28.99 269.57-26.82L269.57-26.82L269.57-26.82Q267.97-24.64 267.07-20.16L267.07-20.16L263.17 0L250.56 1.28L257.28-32.64L267.71-33.92L266.62-27.46L266.62-27.46Q268.29-30.91 271.36-32.42L271.36-32.42L271.36-32.42Q274.43-33.92 279.23-33.92L279.23-33.92L279.23-33.92Q281.98-33.92 283.78-32.58L283.78-32.58L283.78-32.58Q285.57-31.23 286.14-29.06L286.14-29.06L286.14-29.06Q287.23-31.30 290.02-32.61L290.02-32.61L290.02-32.61Q292.80-33.92 296.22-33.92L296.22-33.92L296.22-33.92Q299.65-33.92 301.34-33.18L301.34-33.18L301.34-33.18Q303.04-32.45 304.06-31.23L304.06-31.23L304.06-31.23Q305.79-28.99 305.79-24.90L305.79-24.90L305.79-24.90Q305.79-20.86 304.06-12.48L304.06-12.48L304.06-12.48Q303.17-8.38 303.17-6.88L303.17-6.88L303.17-6.88Q303.17-5.38 304.03-4.48L304.03-4.48L304.03-4.48Q304.90-3.58 306.18-3.46L306.18-3.46L306.18-3.46Q305.54-1.28 303.33 0L303.33 0L303.33 0Q301.12 1.28 298.24 1.28Z" fill="#ffffff"></path></g></g><style>text {
  font-size: 64px;
  font-family: Arial Black;
  dominant-baseline: central;
  text-anchor: middle;
}</style>
<!-- <defs>
<linearGradient id="paint0_linear_120_1360" x1="15" y1="3" x2="15" y2="33" gradientUnits="userSpaceOnUse">
<stop stop-color="#877EFF"/>
<stop offset="0.461458" stop-color="#685DFF"/>
<stop offset="1" stop-color="#3121FF"/>
</linearGradient>
</defs> -->
</svg>